<?xml version="1.0" encoding="UTF-8"?><svg id="a" xmlns="http://www.w3.org/2000/svg" viewBox="0 0 361.76 456.73"><path d="M232.29,231.39c-11.56,10.4-27.16,6.93-27.16,6.93l-4.53-.52c-2.28-4.79-3.6-9.73-3.6-9.73-4.25-15.95-1.86-27.99,10.39-27.19,8.08.53,13.5,5.36,16.28,8.6.59.68,1.1,1.32,1.44,1.8.33.46.79,1.58,1.23-.19,3.62-14.52-2.48-18.09-8.91-19.46-.91-.19-1.87-.39-2.84-.58-6.07-1.23-12.88-2.57-15.74-4.74-3.31-2.51,1.91-5.42,8.43-.2,3.91,3.13,5.77,3.59,6.62,3.46.18-.03.32-.15.42-.29.14-.18.21-.4.12-.63-.29-.82-.64-1.58-1.01-2.34-1.56-4.1-5.21-9.7-13.87-12.76-14.72-5.21-33.43-8.28-45.39-31.59,0,0-4.08,10.22,19.24,38.96,1.29,1.59,2.61,3.2,4.07,4.9,0,0-15.73-6.65-20.92,22.03-.6,3.33-1.07,7.13-1.35,11.48-.09,1.43-.07,2.86.06,4.29.19,2.12.58,5.51,1.27,8.96l1.21,5.62-1.03.12s-15.6,3.47-27.16-6.93l35.82,114.98-21.96,40.45,12.71,34.09,16.76-36.98-8.67,50.85,16.68,21.96,16.68-21.96-8.67-50.85,16.76,36.98,12.71-34.09-21.96-40.45,35.82-114.98Z"/><path d="M211.33,232.46l-.02-.02h0s.01.01.02.02Z"/><path d="M89.31,132.57S54.21,95.37,66.78,0c0,0-37.73,34.06-42.97,63.93,0,0,13.1,54.5,35.63,84.89,0,0-28.66-25.48-46.57-64.19,0,0-19.65,43.34-10.4,75.11,0,0,42.76,43.34,63.56,54.89,0,0-28.64,2.31-66.03-31.78,0,0,6.52,37.56,35.99,76.85,0,0,23.69,11.56,57.2,13.87,0,0-19.65,9.82-42.76,6.36,0,0,47.98,45.32,99.4,34.92l-26.6-85.29s-47.03-20.14-33.92-96.98Z"/><path d="M272.44,132.57S307.55,95.37,294.98,0C294.98,0,332.7,34.06,337.94,63.93c0,0-13.1,54.5-35.63,84.89,0,0,28.66-25.48,46.57-64.19,0,0,19.65,43.34,10.4,75.11,0,0-42.76,43.34-63.56,54.89,0,0,28.64,2.31,66.03-31.78,0,0-6.52,37.56-35.99,76.85,0,0-23.69,11.56-57.2,13.87,0,0,19.65,9.82,42.76,6.36,0,0-47.98,45.32-99.4,34.92l26.6-85.29s47.03-20.14,33.92-96.98Z"/></svg>